<svg width="133" height="40" viewBox="0 0 133 40" fill="none" xmlns="http://www.w3.org/2000/svg">
<path d="M18.0781 28.6562H21.625V31H17.9688C17.4896 35.9271 14.7083 38.3906 9.625 38.3906C7.22917 38.3906 5.34896 37.724 3.98438 36.3906C2.43229 34.8698 1.65625 32.5625 1.65625 29.4688C1.65625 27.375 1.92188 25.349 2.45312 23.3906L5.5 22.8125C4.89583 24.8854 4.59375 27.0052 4.59375 29.1719C4.59375 31.6719 5.16667 33.5052 6.3125 34.6719C7.21875 35.599 8.41667 36.0625 9.90625 36.0625C13.3854 36.0625 15.125 33.8958 15.125 29.5625V15.9531H18.0781V28.6562ZM9.59375 19.0625C9.11458 19.0625 8.70833 18.8958 8.375 18.5625C8.03125 18.2292 7.85938 17.8229 7.85938 17.3438C7.85938 16.8542 8.03125 16.4375 8.375 16.0938C8.70833 15.75 9.11458 15.5781 9.59375 15.5781C10.0729 15.5781 10.4844 15.7448 10.8281 16.0781C11.1823 16.4219 11.3594 16.8438 11.3594 17.3438C11.3594 17.8125 11.1823 18.2188 10.8281 18.5625C10.4844 18.8958 10.0729 19.0625 9.59375 19.0625ZM21.1562 28.6562H28.2656V31H21.1562V28.6562ZM27.8125 28.6562H34.9219V31H27.8125V28.6562ZM34.4688 31V28.6562H37C37.7396 28.6562 38.3594 28.7135 38.8594 28.8281C37.276 27.8281 36.4844 26.026 36.4844 23.4219C36.4844 21.2135 37.1562 19.3906 38.5 17.9531C39.9479 16.3906 41.9427 15.6094 44.4844 15.6094C49.0469 15.6094 51.3281 18 51.3281 22.7812V31H34.4688ZM48.4531 23.2812C48.4531 19.7188 47.0469 17.9375 44.2344 17.9375C42.7552 17.9375 41.5885 18.4271 40.7344 19.4062C39.8802 20.3542 39.4531 21.6354 39.4531 23.25C39.4531 26.8542 41.3958 28.6562 45.2812 28.6562H48.4531V23.2812ZM57.0938 8.4375H60.0312V31H57.0938V8.4375ZM64.5781 39.2188C63.4844 39.2188 62.375 39.0729 61.25 38.7812L61.5625 36.3438C62.5521 36.7083 63.6302 36.8906 64.7969 36.8906C66.2135 36.8906 67.2552 36.5 67.9219 35.7188C68.6823 34.8542 69.0625 33.4219 69.0625 31.4219V15.9531H72V31.1562C72 36.5312 69.526 39.2188 64.5781 39.2188ZM70.4688 12.5312C69.9896 12.5312 69.5781 12.3646 69.2344 12.0312C68.901 11.6979 68.7344 11.2917 68.7344 10.8125C68.7344 10.3229 68.901 9.90625 69.2344 9.5625C69.5781 9.21875 69.9896 9.04688 70.4688 9.04688C70.9479 9.04688 71.3594 9.21875 71.7031 9.5625C72.0469 9.89583 72.2188 10.3125 72.2188 10.8125C72.2188 11.2917 72.0469 11.6979 71.7031 12.0312C71.3594 12.3646 70.9479 12.5312 70.4688 12.5312Z" fill="white"/>
<rect x="93" width="40" height="40" rx="8" fill="url(#paint0_linear_30_360)"/>
<defs>
<linearGradient id="paint0_linear_30_360" x1="113" y1="0" x2="113" y2="40" gradientUnits="userSpaceOnUse">
<stop stop-color="#E44001"/>
<stop offset="1" stop-color="#FF9267" stop-opacity="0.84"/>
</linearGradient>
</defs>
</svg>
